# xmcd
#
# Track frame offsets:
#	150
#	25251
#	34135
#	76699
#	87308
#
# Disc length: 1529 seconds
#
# Revision: 0
# Processed by: cddbd v1.5.2PL0 Copyright (c) Steve Scherf et al.
# Submitted via: EasyCDDAExtractor 16.0.6.1
#
DISCID=2d05f705
DTITLE=Γλυκερία - Ω γλυκύ μου έαρ-Γλυκερία
DYEAR=2011
DGENRE=Βυζ. Εκκλησιαστική
TTITLE0=Γλυκερία-χορωδία - Η ζωή εν τάφω
TTITLE1=Γλυκερία-χορωδία - Άξιον εστί
TTITLE2=Γλυκερία - Ω γλυκύ μου έαρ
TTITLE3=Γλυκερία - Ο νυμφώνας
TTITLE4=Άνευ ερμηνευτού - Ω γλυκύ μου έαρ [Ορχηστρικό]
EXTD=
EXTT0=
EXTT1=
EXTT2=
EXTT3=
EXTT4=
PLAYORDER=
